<svg xmlns="http://www.w3.org/2000/svg" fill="none" viewBox="0 0 640 480">
  <g clip-path="url(#a)">
    <path fill="#fff" d="M640 0H0v480h640V0Z"/>
    <path fill="#DF0000" d="M392.142 0H247.867v480h144.275V0Z"/>
    <path fill="#00319C" d="M640 158.845H0v162.31h640v-162.31Z"/>
    <path fill="#fff" fill-rule="evenodd" d="m275.537 261.568-12.567-10.44-12.506 10.063 4.963-15.947-12.575-10.411 15.104-.116 5.29-15.695 4.808 15.801 15.258-.164-12.093 10.595 4.318 16.314ZM388.736 261.568l-12.575-10.44-12.506 10.063 4.963-15.947-12.566-10.411 15.103-.116 5.29-15.695 4.808 15.801 15.258-.164-12.102 10.595 4.327 16.314ZM332.854 214.29l-12.574-10.45-12.507 10.073 4.963-15.956-12.566-10.402 15.104-.126 5.289-15.695 4.808 15.801 15.259-.164-12.102 10.605 4.326 16.314Z" clip-rule="evenodd"/>
    <path fill="#fff" fill-rule="evenodd" d="m332.854 214.29-12.574-10.45-12.507 10.073 4.963-15.956-12.566-10.402 15.104-.126 5.289-15.695 4.808 15.801 15.259-.164-12.102 10.605 4.326 16.314ZM332.854 310.027l-12.574-10.441-12.507 10.073 4.963-15.956-12.566-10.402 15.104-.126 5.289-15.695 4.808 15.802 15.259-.165-12.102 10.596 4.326 16.314Z" clip-rule="evenodd"/>
  </g>
  <defs>
    <clipPath id="a">
      <path fill="#fff" d="M0 0h640v480H0z"/>
    </clipPath>
  </defs>
</svg>
