<svg xmlns="http://www.w3.org/2000/svg" fill="none" viewBox="0 0 500 500">
  <g clip-path="url(#a)">
    <path fill="#D9D9D9" d="M0-7.813h500v500H0z"/>
    <path fill="#E2E8F0" d="M0-7.813h62.5v46.875H0zM250 85.938h62.5v46.875H250zM187.5 132.812H250v46.875h-62.5z"/>
    <path fill="#EEF2FF" d="M250 273.438h62.5v46.875H250zM312.5 179.688H375v46.875h-62.5z"/>
    <path fill="#E2E8F0" d="M375 39.062h-62.5V-7.813H375z"/>
    <path fill="#F5F3FF" d="M500 226.562h-62.5v-46.875H500zM500 39.062h-62.5V-7.813H500z"/>
    <path fill="#EEF2FF" d="M62.5 507.812H0v-46.875h62.5z"/>
    <path fill="#F7FEE7" d="M375 460.938h-62.5v-46.875H375z"/>
    <path fill="#EEF2FF" d="M437.5 414.062H375v-46.875h62.5z"/>
    <path fill="#E2E8F0" d="M125 460.938h62.5v46.875H125z"/>
    <path fill="#F5F3FF" d="M0 414.062h62.5v46.875H0z"/>
    <path fill="#E2E8F0" d="M0 132.812h62.5v46.875H0zM312.5 320.312H375v46.875h-62.5zM437.5 273.438H500v46.875h-62.5z"/>
    <path fill="#F1F5F9" d="M62.5-7.813H125v46.875H62.5zM312.5 85.938H375v46.875h-62.5z"/>
    <path fill="#ECFEFF" d="M250 132.812h62.5v46.875H250z"/>
    <path fill="#F1F5F9" d="M187.5 179.688H250v46.875h-62.5zM312.5 273.438H375v46.875h-62.5zM375 226.562h62.5v46.875H375z"/>
    <path fill="#F0FDFA" d="M0 179.688h62.5v46.875H0z"/>
    <path fill="#F1F5F9" d="M187.5 367.188H250v46.875h-62.5z"/>
    <path fill="#FDF4FF" d="M0 39.063h62.5v46.875H0z"/>
    <path fill="#F1F5F9" d="M437.5 85.938H500v46.875h-62.5zM0 273.438h62.5v46.875H0zM0 367.188h62.5v46.875H0z"/>
    <path fill="#F0FDFA" d="M187.5 320.312H250v46.875h-62.5z"/>
    <path fill="#F1F5F9" d="M312.5 39.062H250V-7.813h62.5zM437.5 179.688H375v-46.875h62.5zM312.5 460.938H250v-46.875h62.5zM375 414.062h-62.5v-46.875H375zM187.5 460.938H250v46.875h-62.5zM375 320.312h62.5v46.875H375zM375 460.938h62.5v46.875H375z"/>
    <path fill="#F0FDFA" d="M437.5 367.188H500v46.875h-62.5z"/>
    <path fill="#F1F5F9" d="M437.5 414.062H500v46.875h-62.5z"/>
    <path fill="#ECFEFF" d="M125-7.813h62.5v46.875H125z"/>
    <path fill="#F8FAFC" d="M375 85.938h62.5v46.875H375zM312.5 132.812H375v46.875h-62.5zM250 179.688h62.5v46.875H250z"/>
    <path fill="#FDF4FF" d="M375 273.438h62.5v46.875H375z"/>
    <path fill="#F8FAFC" d="M437.5 226.562H500v46.875h-62.5zM187.5 273.438H250v46.875h-62.5zM250 320.312h62.5v46.875H250zM250 39.062h-62.5V-7.813H250zM375 273.438h-62.5v-46.875H375zM62.5 132.812H0V85.937h62.5z"/>
    <path fill="#F7FEE7" d="M62.5 367.188H0v-46.875h62.5z"/>
    <path fill="#F8FAFC" d="M62.5 273.438H0v-46.875h62.5zM437.5 39.062H375V-7.813h62.5z"/>
    <path fill="#F7FEE7" d="M500 179.688h-62.5v-46.875H500z"/>
    <path fill="#F8FAFC" d="M437.5 226.562H375v-46.875h62.5zM375 507.812h-62.5v-46.875H375zM250 132.812h-62.5V85.937H250zM125 507.812H62.5v-46.875H125zM250 460.938h-62.5v-46.875H250zM312.5 414.062H250v-46.875h62.5zM250 460.938h62.5v46.875H250zM437.5 39.063H500v46.875h-62.5zM437.5 320.312H500v46.875h-62.5z"/>
    <path fill="#FDF4FF" d="M437.5 460.938H500v46.875h-62.5z"/>
    <path fill="#F8FAFC" d="M375 414.062h62.5v46.875H375z"/>
    <path fill="#EF4444" d="M187.5 203.125h125v93.75h-125z"/>
    <path fill="#10B981" d="M312.5 15.625h125v93.75h-125z"/>
    <path fill="#FDE047" d="M62.5 109.375h125v93.75h-125z"/>
    <path fill="#6366F1" d="M62.5 390.625h125v93.75h-125z"/>
    <path fill="#0EA5E9" d="M62.5 15.625h125v93.75h-125z"/>
    <path fill="#34D399" d="M62.5 203.125h125v93.75h-125z"/>
    <path fill="#F59E0B" d="M62.5 296.875h125v93.75h-125z"/>
    <path fill="#A855F7" d="M187.5 15.625h125v93.75h-125z"/>
  </g>
  <defs>
    <clipPath id="a">
      <rect width="500" height="500" fill="#fff" rx="32"/>
    </clipPath>
  </defs>
</svg>
